HIERARCHY
ROOT Hips
{
	OFFSET 0.00000 0.00000 0.00000
	CHANNELS 6 Xposition Yposition Zposition Zrotation Yrotation Xrotation 
	JOINT LHipJoint
	{
		OFFSET 0 0 0
		CHANNELS 3 Zrotation Yrotation Xrotation
		JOINT LeftUpLeg
		{
			OFFSET 1.38280 -1.96574 0.54427
			CHANNELS 3 Zrotation Yrotation Xrotation
			JOINT LeftLeg
			{
				OFFSET 2.72096 -7.47578 0.00000
				CHANNELS 3 Zrotation Yrotation Xrotation
				JOINT LeftFoot
				{
					OFFSET 2.73041 -7.50176 0.00000
					CHANNELS 3 Zrotation Yrotation Xrotation
					JOINT LeftToeBase
					{
						OFFSET 0.16150 -0.44371 2.18031
						CHANNELS 3 Zrotation Yrotation Xrotation
						End Site
						{
							OFFSET 0.00000 -0.00000 1.12127
						}
					}
				}
			}
		}
	}
	JOINT RHipJoint
	{
		OFFSET 0 0 0
		CHANNELS 3 Zrotation Yrotation Xrotation
		JOINT RightUpLeg
		{
			OFFSET -1.57224 -1.96575 0.54427
			CHANNELS 3 Zrotation Yrotation Xrotation
			JOINT RightLeg
			{
				OFFSET -2.95935 -8.13076 0.00000
				CHANNELS 3 Zrotation Yrotation Xrotation
				JOINT RightFoot
				{
					OFFSET -2.52345 -6.93311 0.00000
					CHANNELS 3 Zrotation Yrotation Xrotation
					JOINT RightToeBase
					{
						OFFSET -0.04475 -0.10171 1.86688
						CHANNELS 3 Zrotation Yrotation Xrotation
						End Site
						{
							OFFSET -0.00000 -0.00000 0.95157
						}
					}
				}
			}
		}
	}
	JOINT LowerBack
	{
		OFFSET 0 0 0
		CHANNELS 3 Zrotation Yrotation Xrotation
		JOINT Spine
		{
			OFFSET 0.00669 2.07367 0.09104
			CHANNELS 3 Zrotation Yrotation Xrotation
			JOINT Spine1
			{
				OFFSET -0.00664 2.06198 -0.04732
				CHANNELS 3 Zrotation Yrotation Xrotation
				JOINT Neck
				{
					OFFSET 0 0 0
					CHANNELS 3 Zrotation Yrotation Xrotation
					JOINT Neck1
					{
						OFFSET -0.00021 1.49948 0.16345
						CHANNELS 3 Zrotation Yrotation Xrotation
						JOINT Head
						{
							OFFSET 0.06080 1.50567 -0.26702
							CHANNELS 3 Zrotation Yrotation Xrotation
							End Site
							{
								OFFSET 0.01726 1.56470 -0.11854
							}
						}
					}
				}
				JOINT LeftShoulder
				{
					OFFSET 0 0 0
					CHANNELS 3 Zrotation Yrotation Xrotation
					JOINT LeftArm
					{
						OFFSET 3.14993 0.82932 -0.22488
						CHANNELS 3 Zrotation Yrotation Xrotation
						JOINT LeftForeArm
						{
							OFFSET 5.68236 -0.00000 -0.00000
							CHANNELS 3 Zrotation Yrotation Xrotation
							JOINT LeftHand
							{
								OFFSET 3.17112 -0.00000 0.00000
								CHANNELS 3 Zrotation Yrotation Xrotation
								JOINT LeftFingerBase
								{
									OFFSET 0 0 0
									CHANNELS 3 Zrotation Yrotation Xrotation
									JOINT LeftHandIndex1
									{
										OFFSET 0.63269 -0.00000 0.00000
										CHANNELS 3 Zrotation Yrotation Xrotation
										End Site
										{
											OFFSET 0.51009 -0.00000 0.00000
										}
									}
								}
								JOINT LThumb
								{
									OFFSET 0 0 0
									CHANNELS 3 Zrotation Yrotation Xrotation
									End Site
									{
										OFFSET 0.51788 -0.00000 0.51788
									}
								}
							}
						}
					}
				}
				JOINT RightShoulder
				{
					OFFSET 0 0 0
					CHANNELS 3 Zrotation Yrotation Xrotation
					JOINT RightArm
					{
						OFFSET -3.10571 0.91279 -0.33334
						CHANNELS 3 Zrotation Yrotation Xrotation
						JOINT RightForeArm
						{
							OFFSET -5.87120 -0.00000 -0.00000
							CHANNELS 3 Zrotation Yrotation Xrotation
							JOINT RightHand
							{
								OFFSET -3.37589 -0.00000 0.00000
								CHANNELS 3 Zrotation Yrotation Xrotation
								JOINT RightFingerBase
								{
									OFFSET 0 0 0
									CHANNELS 3 Zrotation Yrotation Xrotation
									JOINT RightHandIndex1
									{
										OFFSET -0.60326 -0.00000 0.00000
										CHANNELS 3 Zrotation Yrotation Xrotation
										End Site
										{
											OFFSET -0.48636 -0.00000 0.00000
										}
									}
								}
								JOINT RThumb
								{
									OFFSET 0 0 0
									CHANNELS 3 Zrotation Yrotation Xrotation
									End Site
									{
										OFFSET -0.49379 -0.00000 0.49379
									}
								}
							}
						}
					}
				}
			}
		}
	}
}
MOTION
Frames: 11
Frame Time: .0083333
7.633 17.9237 -3.992 0 0 0 0 0 0 -21 0 0 0 0 0 0 0 0 0 0 0 0 0 0 21 0 0 0 0 0 0 0 0 0 0 0 0 0 0 0 0 0 0 0 0 0 0 -16 0 0 21 0 0 11 0 0 0 -8 0 0 0 0 0 0 0 0 0 0 0 0 0 0 0 0 0 0 0 0 8 0 0 0 0 0 0 0 0 0 0 0 0 0 0 0 0 0
7.6330 17.9237 -3.9920 172.3070 -76.3586 -160.3660 0.0000 0.0000 0.0000 -13.8412 -12.1252 -29.9337 7.0754 15.3951 49.1590 2.0830 3.2800 -28.5977 0.8927 -6.0223 -16.8492 0.0000 0.0000 0.0000 16.5469 16.5968 -22.7281 -4.7794 -13.1310 39.8607 0.6224 14.4413 9.8852 -6.1265 -14.5499 45.4875 -2.1210 -0.3066 -8.3365 2.0995 -0.3258 1.6626 3.3539 -0.2893 6.4542 0.6932 3.0859 -19.7026 -2.9039 4.6793 23.2899 -0.4783 1.7351 10.8685 0.0000 0.0000 0.0000 -86.1661 -0.4935 34.0248 20.0392 -30.6895 -5.5513 -0.0000 0.0000 -17.5740 16.9809 34.2685 9.7562 -7.1250 0.0000 -0.0000 -20.1372 64.3613 -9.6286 0.0000 0.0000 0.0000 87.7844 3.7995 0.4146 -17.4104 27.3957 -4.2745 0.0000 0.0000 22.3653 -20.7185 28.7334 -10.3056 7.1250 -0.0000 -0.0000 5.7889 0.2600 5.8450
7.6191 17.9301 -4.0285 171.4550 -76.8163 -159.3880 0.0000 0.0000 0.0000 -13.9374 -12.1086 -30.6978 7.1992 15.4974 49.6237 1.9770 3.0625 -27.8045 0.9860 -6.3204 -17.7170 0.0000 0.0000 0.0000 16.5555 16.5925 -22.7088 -4.7672 -13.1167 39.8070 0.6671 14.7742 9.5341 -6.1221 -14.5456 45.4696 -2.1253 -0.2514 -8.3544 2.1086 -0.2518 1.5996 3.3757 -0.2515 6.3922 0.5023 2.8970 -19.7294 -2.7079 4.4236 23.4343 -0.4144 1.6228 10.9116 -0.0000 -0.0000 0.0000 -86.2581 -0.4983 33.9437 19.9746 -30.6117 -5.5184 -0.0000 0.0000 -17.6815 17.0461 34.3920 9.8256 -7.1250 0.0000 -0.0000 -20.1856 64.4933 -9.7145 -0.0000 -0.0000 0.0000 88.5399 3.5073 -0.1177 -17.1181 27.0132 -4.1408 0.0000 0.0000 23.3613 -20.8542 28.8828 -10.4261 7.1250 -0.0000 -0.0000 5.7278 0.4391 5.8005
7.6036 17.9345 -4.0644 170.9420 -77.3128 -158.8190 0.0000 0.0000 0.0000 -13.9401 -12.1022 -31.3946 7.3163 15.5925 50.0606 1.8725 2.7350 -26.9544 1.0569 -6.5367 -18.3497 0.0000 0.0000 0.0000 16.7063 16.6318 -22.5484 -4.7525 -13.0995 39.7422 0.7192 15.1600 9.0905 -6.1159 -14.5397 45.4451 -2.0290 -0.1686 -8.3606 2.1293 -0.1532 1.5979 3.3565 -0.1999 6.3861 0.4040 2.7171 -19.7408 -2.5986 4.1736 23.5098 -0.3963 1.5128 10.9319 0.0000 -0.0000 0.0000 -86.3061 -0.4518 34.0119 20.0368 -30.6867 -5.5501 -0.0000 0.0000 -17.9340 17.2704 34.3454 9.9487 -7.1250 0.0000 -0.0000 -19.8857 64.5114 -9.5730 0.0000 -0.0000 0.0000 89.2703 3.2893 -0.6596 -16.8249 26.6264 -4.0086 0.0000 0.0000 23.8964 -21.3182 29.1429 -10.7606 7.1250 -0.0000 -0.0000 5.4898 0.7964 5.5911
7.5863 17.9376 -4.0970 170.2330 -77.8217 -158.0460 0.0000 0.0000 0.0000 -13.9903 -12.1622 -32.0992 7.4254 15.6799 50.4655 1.7770 2.4422 -26.1637 1.1200 -6.7226 -18.8960 0.0000 0.0000 0.0000 16.8141 16.6059 -22.4166 -4.7411 -13.0862 39.6919 0.7677 15.5275 8.6794 -6.1082 -14.5324 45.4145 -1.9639 -0.1182 -8.3698 2.1639 -0.0955 1.5768 3.3639 -0.1694 6.3645 0.3135 2.5683 -19.7154 -2.5282 3.9741 23.5706 -0.3863 1.4218 10.9424 -0.0000 -0.0000 0.0000 -86.4021 -0.2966 34.0389 20.1852 -30.8648 -5.6260 -0.0000 0.0000 -18.1507 17.4685 34.2919 10.0542 -7.1250 0.0000 -0.0000 -19.6083 64.5158 -9.4365 -0.0000 -0.0000 0.0000 89.8736 3.0995 -1.1059 -16.5095 26.2066 -3.8682 0.0000 0.0000 24.2955 -21.9605 29.3502 -11.1798 7.1250 -0.0000 -0.0000 5.1432 1.1380 5.2654
7.5686 17.9398 -4.1287 169.3780 -78.3310 -157.1390 0.0000 0.0000 0.0000 -14.0693 -12.2471 -32.7806 7.5242 15.7579 50.8301 1.6920 2.1304 -25.4238 1.1647 -6.8510 -19.2746 0.0000 0.0000 0.0000 16.9016 16.5664 -22.2896 -4.7311 -13.0744 39.6478 0.8150 15.8917 8.2738 -6.1021 -14.5266 45.3902 -1.9115 -0.0767 -8.3555 2.1962 -0.0481 1.5480 3.3742 -0.1440 6.3223 0.1991 2.4207 -19.6759 -2.4378 3.7781 23.6110 -0.3647 1.3335 10.9421 0.0000 0.0000 0.0000 -86.5071 -0.1423 34.0540 20.3116 -31.0159 -5.6910 -0.0000 0.0000 -18.3314 17.6338 34.2143 10.1337 -7.1250 0.0000 -0.0000 -19.3447 64.4890 -9.2930 0.0000 0.0000 0.0000 90.4203 2.9283 -1.4912 -16.1917 25.7799 -3.7290 0.0000 0.0000 24.6122 -22.6296 29.4774 -11.5924 7.1250 -0.0000 -0.0000 4.7722 1.4066 4.9048
7.5501 17.9412 -4.1589 168.3510 -78.8379 -156.0780 0.0000 0.0000 0.0000 -14.1841 -12.3605 -33.4292 7.6071 15.8225 51.1348 1.6199 1.8043 -24.7602 1.1881 -6.9169 -19.4695 0.0000 0.0000 0.0000 16.9661 16.4903 -22.1681 -4.7244 -13.0666 39.6182 0.8604 16.2485 7.8965 -6.0982 -14.5228 45.3745 -1.8707 -0.0482 -8.3070 2.2236 -0.0168 1.5118 3.3833 -0.1263 6.2540 0.0647 2.2812 -19.6250 -2.3290 3.5944 23.6347 -0.3312 1.2518 10.9331 0.0000 0.0000 0.0000 -86.6222 0.0203 34.0454 20.4185 -31.1432 -5.7462 -0.0000 0.0000 -18.4530 17.7454 34.1256 10.1779 -7.1250 0.0000 -0.0000 -19.1317 64.4368 -9.1639 0.0000 0.0000 0.0000 90.8788 2.7740 -1.7543 -15.8784 25.3555 -3.5937 0.0000 0.0000 24.7890 -23.3471 29.5203 -12.0070 7.1250 -0.0000 -0.0000 4.3625 1.6024 4.4957
7.5306 17.9421 -4.1881 167.2030 -79.3328 -154.9200 0.0000 0.0000 0.0000 -14.3212 -12.4897 -34.0376 7.6734 15.8737 51.3776 1.5594 1.4691 -24.1710 1.1984 -6.9458 -19.5550 0.0000 0.0000 0.0000 17.0244 16.3741 -22.0431 -4.7189 -13.0600 39.5935 0.9031 16.5888 7.5611 -6.0967 -14.5214 45.3685 -1.8256 -0.0234 -8.2233 2.2406 0.0098 1.4792 3.3780 -0.1103 6.1697 -0.0799 2.1465 -19.5790 -2.2040 3.4164 23.6436 -0.2891 1.1742 10.9196 0.0000 0.0000 0.0000 -86.7342 0.1587 34.0176 20.4881 -31.2259 -5.7823 -0.0000 0.0000 -18.5190 17.8052 34.0650 10.1982 -7.1250 0.0000 -0.0000 -19.0052 64.3966 -9.0834 0.0000 0.0000 0.0000 91.2645 2.6353 -1.8758 -15.5888 24.9599 -3.4706 0.0000 0.0000 24.8233 -24.0633 29.4741 -12.3920 7.1250 -0.0000 -0.0000 3.9410 1.7095 4.0663
7.5098 17.9427 -4.2166 165.9930 -79.8059 -153.7200 0.0000 0.0000 0.0000 -14.4681 -12.6224 -34.6082 7.7204 15.9097 51.5491 1.5056 1.1452 -23.6331 1.2123 -6.9846 -19.6698 0.0000 0.0000 0.0000 17.0898 16.2195 -21.9099 -4.7131 -13.0532 39.5679 0.9418 16.9016 7.2726 -6.0965 -14.5212 45.3677 -1.7626 0.0114 -8.1224 2.2402 0.0490 1.4585 3.3458 -0.0873 6.0874 -0.2065 2.0124 -19.5401 -2.0790 3.2341 23.6375 -0.2505 1.0967 10.9027 0.0000 0.0000 0.0000 -86.8211 0.2700 34.0102 20.5347 -31.2811 -5.8064 -0.0000 0.0000 -18.5664 17.8438 34.0584 10.2195 -7.1250 0.0000 -0.0000 -18.9550 64.4008 -9.0604 0.0000 0.0000 0.0000 91.5999 2.5116 -1.8811 -15.3405 24.6183 -3.3665 0.0000 0.0000 24.7309 -24.7023 29.3508 -12.7060 7.1250 -0.0000 -0.0000 3.5524 1.7228 3.6646
7.4874 17.9430 -4.2441 164.7490 -80.2502 -152.4890 0.0000 0.0000 0.0000 -14.6222 -12.7492 -35.1596 7.7465 15.9296 51.6443 1.4551 0.8739 -23.1363 1.2492 -7.0862 -19.9711 0.0000 0.0000 0.0000 17.1623 16.0280 -21.7790 -4.7062 -13.0451 39.5374 0.9755 17.1753 7.0353 -6.0957 -14.5205 45.3646 -1.6774 0.0618 -8.0328 2.2207 0.1083 1.4459 3.2835 -0.0534 6.0186 -0.2927 1.8801 -19.4972 -1.9701 3.0456 23.6208 -0.2253 1.0184 10.8826 -0.0000 0.0000 0.0000 -86.8696 0.3906 34.0569 20.5919 -31.3489 -5.8362 -0.0000 0.0000 -18.6287 17.8813 34.1092 10.2552 -7.1250 0.0000 -0.0000 -18.9611 64.4586 -9.0889 -0.0000 0.0000 0.0000 91.8920 2.3952 -1.8167 -15.1425 24.3442 -3.2845 0.0000 0.0000 24.5705 -25.1699 29.1962 -12.9108 7.1250 -0.0000 -0.0000 3.2578 1.6666 3.3565
7.4633 17.9424 -4.2703 163.4840 -80.6665 -151.2340 0.0000 0.0000 0.0000 -14.7868 -12.8587 -35.6992 7.7516 15.9335 51.6628 1.4075 0.6852 -22.6891 1.3178 -7.2708 -20.5201 0.0000 0.0000 0.0000 17.2420 15.8081 -21.6487 -4.6975 -13.0348 39.4988 1.0046 17.4131 6.8446 -6.0932 -14.5181 45.3548 -1.5715 0.1243 -7.9624 2.1878 0.1827 1.4367 3.1977 -0.0113 5.9637 -0.3394 1.7501 -19.4407 -1.8848 2.8540 23.5890 -0.2157 0.9396 10.8556 -0.0000 -0.0000 0.0000 -86.8840 0.5500 34.1584 20.6789 -31.4516 -5.8815 -0.0000 0.0000 -18.7116 17.9219 34.1803 10.2979 -7.1250 0.0000 -0.0000 -18.9836 64.5361 -9.1342 -0.0000 -0.0000 0.0000 92.1310 2.2827 -1.7300 -14.9911 24.1337 -3.2223 0.0000 0.0000 24.4234 -25.4200 29.0723 -13.0037 7.1250 -0.0000 -0.0000 3.0935 1.5939 3.1829
